<svg xmlns="http://www.w3.org/2000/svg" width="800" height="600" viewBox="0 0 800 600">
<rect width="800" height="600" fill="#1a1c22"/>
<g stroke="#4a9eff" stroke-width="0.8" fill="#1e2a3a" fill-opacity="0.5">
  <polygon points="436.36,163.64 402.27,129.55 402.27,190.15"/>
  <polygon points="459.09,413.64 424.80,391.21 431.53,440.78"/>
  <polygon points="95.45,459.09 71.10,418.51 66.10,484.66"/>
  <polygon points="27.27,436.36 66.10,484.66 71.10,418.51"/>
  <polygon points="436.36,300.00 455.11,259.87 400.38,267.80"/>
  <polygon points="459.09,413.64 447.73,356.82 424.80,391.21"/>
  <polygon points="163.64,512.12 201.85,475.25 150.50,474.24"/>
  <polygon points="118.18,413.64 163.64,436.36 165.26,366.56"/>
  <polygon points="201.85,475.25 163.64,512.12 211.55,523.54"/>
  <polygon points="436.36,300.00 480.01,317.63 455.11,259.87"/>
  <polygon points="524.12,95.45 572.73,118.18 572.73,72.73"/>
  <polygon points="413.64,526.10 390.91,572.73 436.36,572.73"/>
  <polygon points="572.73,300.00 572.73,254.55 514.74,285.86"/>
  <polygon points="345.45,436.36 368.03,474.24 397.73,421.97"/>
  <polygon points="322.54,364.65 357.90,343.62 300.00,300.00"/>
  <polygon points="254.55,481.82 253.48,444.58 201.85,475.25"/>
  <polygon points="436.36,300.00 447.73,356.82 480.01,317.63"/>
  <polygon points="163.64,512.12 119.05,499.10 118.18,572.73"/>
  <polygon points="163.64,512.12 118.18,572.73 163.64,572.73"/>
  <polygon points="27.27,481.82 27.27,527.27 66.10,484.66"/>
  <polygon points="221.29,425.84 197.94,391.78 163.64,436.36"/>
  <polygon points="345.45,436.36 390.91,368.18 318.47,405.47"/>
  <polygon points="322.54,364.65 300.00,300.00 276.35,345.15"/>
  <polygon points="27.27,345.45 67.05,339.77 27.27,300.00"/>
  <polygon points="72.73,300.00 27.27,300.00 67.05,339.77"/>
  <polygon points="211.55,523.54 209.09,572.73 254.19,529.64"/>
  <polygon points="345.45,512.12 296.75,522.94 345.45,572.73"/>
  <polygon points="119.05,499.10 150.50,474.24 95.45,459.09"/>
  <polygon points="27.27,390.91 71.10,418.51 95.45,368.18"/>
  <polygon points="428.79,224.24 402.27,190.15 368.18,231.82"/>
  <polygon points="368.18,303.79 342.30,267.80 300.00,300.00"/>
  <polygon points="368.18,303.79 400.38,267.80 342.30,267.80"/>
  <polygon points="511.01,160.29 526.58,204.03 572.73,163.64"/>
  <polygon points="470.45,95.45 436.36,27.27 419.32,78.41"/>
  <polygon points="436.36,27.27 390.91,27.27 419.32,78.41"/>
  <polygon points="345.45,27.27 300.00,27.27 339.77,67.05"/>
  <polygon points="504.55,534.43 481.82,572.73 527.27,572.73"/>
  <polygon points="517.98,345.45 529.07,391.09 572.73,345.45"/>
  <polygon points="307.58,474.24 296.75,522.94 345.45,512.12"/>
  <polygon points="300.00,572.73 345.45,572.73 296.75,522.94"/>
  <polygon points="480.96,450.39 431.53,440.78 448.40,499.13"/>
  <polygon points="572.73,209.09 572.73,163.64 526.58,204.03"/>
  <polygon points="428.79,224.24 400.38,267.80 455.11,259.87"/>
  <polygon points="436.36,163.64 462.88,197.73 511.01,160.29"/>
  <polygon points="368.18,231.82 402.27,190.15 341.67,197.73"/>
  <polygon points="413.64,526.10 368.03,474.24 375.96,536.59"/>
  <polygon points="487.27,378.46 459.09,413.64 520.42,433.89"/>
  <polygon points="345.45,512.12 368.03,474.24 307.58,474.24"/>
  <polygon points="412.12,474.24 368.03,474.24 413.64,526.10"/>
  <polygon points="322.54,364.65 318.47,405.47 390.91,368.18"/>
  <polygon points="397.73,421.97 431.53,440.78 424.80,391.21"/>
  <polygon points="397.73,421.97 390.91,368.18 345.45,436.36"/>
  <polygon points="412.12,474.24 397.73,421.97 368.03,474.24"/>
  <polygon points="514.74,285.86 455.11,259.87 480.01,317.63"/>
  <polygon points="447.73,356.82 436.36,300.00 413.64,334.09"/>
  <polygon points="436.36,300.00 368.18,303.79 413.64,334.09"/>
  <polygon points="300.00,254.55 300.00,300.00 342.30,267.80"/>
  <polygon points="279.34,417.77 307.58,474.24 318.47,405.47"/>
  <polygon points="254.55,300.00 276.35,345.15 300.00,300.00"/>
  <polygon points="221.29,425.84 279.34,417.77 231.82,368.18"/>
  <polygon points="165.26,366.56 163.64,436.36 197.94,391.78"/>
  <polygon points="390.91,368.18 424.80,391.21 447.73,356.82"/>
  <polygon points="424.80,391.21 390.91,368.18 397.73,421.97"/>
  <polygon points="480.96,450.39 520.42,433.89 459.09,413.64"/>
  <polygon points="572.73,390.91 572.73,345.45 529.07,391.09"/>
  <polygon points="448.40,499.13 413.64,526.10 459.09,538.66"/>
  <polygon points="27.27,481.82 66.10,484.66 27.27,436.36"/>
  <polygon points="27.27,572.73 72.73,572.73 27.27,527.27"/>
  <polygon points="163.64,436.36 118.18,413.64 150.50,474.24"/>
  <polygon points="118.18,300.00 129.76,341.74 163.64,300.00"/>
  <polygon points="221.29,425.84 163.64,436.36 201.85,475.25"/>
  <polygon points="78.41,521.59 118.18,572.73 119.05,499.10"/>
  <polygon points="95.45,459.09 150.50,474.24 118.18,413.64"/>
  <polygon points="78.41,521.59 119.05,499.10 66.10,484.66"/>
  <polygon points="78.41,521.59 27.27,527.27 72.73,572.73"/>
  <polygon points="209.09,572.73 211.55,523.54 163.64,572.73"/>
  <polygon points="221.29,425.84 201.85,475.25 253.48,444.58"/>
  <polygon points="209.09,300.00 163.64,300.00 199.18,341.18"/>
  <polygon points="118.18,413.64 165.26,366.56 95.45,368.18"/>
  <polygon points="368.18,303.79 300.00,300.00 357.90,343.62"/>
  <polygon points="231.82,368.18 279.34,417.77 276.35,345.15"/>
  <polygon points="165.26,366.56 199.18,341.18 163.64,300.00"/>
  <polygon points="197.94,391.78 221.29,425.84 231.82,368.18"/>
  <polygon points="165.26,366.56 197.94,391.78 199.18,341.18"/>
  <polygon points="165.26,366.56 163.64,300.00 129.76,341.74"/>
  <polygon points="118.18,413.64 95.45,368.18 71.10,418.51"/>
  <polygon points="71.10,418.51 27.27,390.91 27.27,436.36"/>
  <polygon points="118.18,413.64 71.10,418.51 95.45,459.09"/>
  <polygon points="211.55,523.54 254.19,529.64 254.55,481.82"/>
  <polygon points="211.55,523.54 254.55,481.82 201.85,475.25"/>
  <polygon points="296.75,522.94 254.55,481.82 254.19,529.64"/>
  <polygon points="345.45,436.36 307.58,474.24 368.03,474.24"/>
  <polygon points="254.55,481.82 307.58,474.24 253.48,444.58"/>
  <polygon points="279.34,417.77 253.48,444.58 307.58,474.24"/>
  <polygon points="253.48,444.58 279.34,417.77 221.29,425.84"/>
  <polygon points="150.50,474.24 119.05,499.10 163.64,512.12"/>
  <polygon points="163.64,436.36 150.50,474.24 201.85,475.25"/>
  <polygon points="368.18,163.64 300.00,163.64 341.67,197.73"/>
  <polygon points="231.82,368.18 254.55,300.00 199.18,341.18"/>
  <polygon points="368.18,163.64 341.67,129.55 300.00,163.64"/>
  <polygon points="300.00,209.09 300.00,254.55 341.67,197.73"/>
  <polygon points="300.00,118.18 300.00,163.64 341.67,129.55"/>
  <polygon points="300.00,209.09 341.67,197.73 300.00,163.64"/>
  <polygon points="368.18,95.45 419.32,78.41 390.91,27.27"/>
  <polygon points="368.18,163.64 402.27,129.55 341.67,129.55"/>
  <polygon points="341.67,129.55 339.77,67.05 300.00,118.18"/>
  <polygon points="436.36,163.64 402.27,190.15 462.88,197.73"/>
  <polygon points="368.18,163.64 402.27,190.15 402.27,129.55"/>
  <polygon points="368.18,231.82 342.30,267.80 400.38,267.80"/>
  <polygon points="300.00,254.55 342.30,267.80 341.67,197.73"/>
  <polygon points="400.38,267.80 368.18,303.79 436.36,300.00"/>
  <polygon points="368.18,231.82 400.38,267.80 428.79,224.24"/>
  <polygon points="489.39,231.82 455.11,259.87 514.74,285.86"/>
  <polygon points="455.11,259.87 489.39,231.82 428.79,224.24"/>
  <polygon points="524.12,95.45 572.73,72.73 527.27,27.27"/>
  <polygon points="514.74,285.86 530.89,246.42 489.39,231.82"/>
  <polygon points="572.73,300.00 538.48,314.45 572.73,345.45"/>
  <polygon points="526.58,204.03 489.39,231.82 530.89,246.42"/>
  <polygon points="402.27,129.55 442.05,123.86 419.32,78.41"/>
  <polygon points="524.12,95.45 497.29,123.77 536.76,131.76"/>
  <polygon points="572.73,27.27 527.27,27.27 572.73,72.73"/>
  <polygon points="470.45,95.45 481.82,27.27 436.36,27.27"/>
  <polygon points="368.18,95.45 402.27,129.55 419.32,78.41"/>
  <polygon points="470.45,95.45 419.32,78.41 442.05,123.86"/>
  <polygon points="368.18,95.45 390.91,27.27 339.77,67.05"/>
  <polygon points="504.55,534.43 491.78,491.78 459.09,538.66"/>
  <polygon points="345.45,512.12 375.96,536.59 368.03,474.24"/>
  <polygon points="520.42,433.89 530.81,475.06 572.73,436.36"/>
  <polygon points="447.73,356.82 487.27,378.46 480.01,317.63"/>
  <polygon points="487.27,378.46 447.73,356.82 459.09,413.64"/>
  <polygon points="296.75,522.94 307.58,474.24 254.55,481.82"/>
  <polygon points="254.55,572.73 300.00,572.73 254.19,529.64"/>
  <polygon points="345.45,512.12 345.45,572.73 375.96,536.59"/>
  <polygon points="436.36,572.73 459.09,538.66 413.64,526.10"/>
  <polygon points="504.55,534.43 527.27,572.73 536.78,513.20"/>
  <polygon points="442.05,123.86 436.36,163.64 497.29,123.77"/>
  <polygon points="511.01,160.29 462.88,197.73 526.58,204.03"/>
  <polygon points="517.98,345.45 480.01,317.63 487.27,378.46"/>
  <polygon points="514.74,285.86 480.01,317.63 538.48,314.45"/>
  <polygon points="428.79,224.24 462.88,197.73 402.27,190.15"/>
  <polygon points="462.88,197.73 428.79,224.24 489.39,231.82"/>
  <polygon points="572.73,481.82 572.73,436.36 530.81,475.06"/>
  <polygon points="487.27,378.46 529.07,391.09 517.98,345.45"/>
  <polygon points="357.90,343.62 322.54,364.65 390.91,368.18"/>
  <polygon points="368.18,303.79 357.90,343.62 413.64,334.09"/>
  <polygon points="318.47,405.47 322.54,364.65 279.34,417.77"/>
  <polygon points="345.45,436.36 318.47,405.47 307.58,474.24"/>
  <polygon points="431.53,440.78 397.73,421.97 412.12,474.24"/>
  <polygon points="459.09,413.64 431.53,440.78 480.96,450.39"/>
  <polygon points="390.91,368.18 413.64,334.09 357.90,343.62"/>
  <polygon points="390.91,368.18 447.73,356.82 413.64,334.09"/>
  <polygon points="276.35,345.15 254.55,300.00 231.82,368.18"/>
  <polygon points="322.54,364.65 276.35,345.15 279.34,417.77"/>
  <polygon points="491.78,491.78 480.96,450.39 448.40,499.13"/>
  <polygon points="520.42,433.89 480.96,450.39 530.81,475.06"/>
  <polygon points="517.98,345.45 572.73,345.45 538.48,314.45"/>
  <polygon points="78.41,521.59 66.10,484.66 27.27,527.27"/>
  <polygon points="95.45,459.09 66.10,484.66 119.05,499.10"/>
  <polygon points="78.41,521.59 72.73,572.73 118.18,572.73"/>
  <polygon points="95.45,368.18 129.76,341.74 67.05,339.77"/>
  <polygon points="129.76,341.74 95.45,368.18 165.26,366.56"/>
  <polygon points="163.64,512.12 163.64,572.73 211.55,523.54"/>
  <polygon points="129.76,341.74 118.18,300.00 67.05,339.77"/>
  <polygon points="231.82,368.18 199.18,341.18 197.94,391.78"/>
  <polygon points="209.09,300.00 199.18,341.18 254.55,300.00"/>
  <polygon points="27.27,345.45 27.27,390.91 67.05,339.77"/>
  <polygon points="254.55,572.73 254.19,529.64 209.09,572.73"/>
  <polygon points="296.75,522.94 254.19,529.64 300.00,572.73"/>
  <polygon points="368.18,95.45 341.67,129.55 402.27,129.55"/>
  <polygon points="300.00,72.73 300.00,118.18 339.77,67.05"/>
  <polygon points="368.18,231.82 341.67,197.73 342.30,267.80"/>
  <polygon points="368.18,163.64 341.67,197.73 402.27,190.15"/>
  <polygon points="489.39,231.82 526.58,204.03 462.88,197.73"/>
  <polygon points="572.73,254.55 572.73,209.09 530.89,246.42"/>
  <polygon points="481.82,27.27 497.29,64.89 527.27,27.27"/>
  <polygon points="511.01,160.29 536.76,131.76 497.29,123.77"/>
  <polygon points="511.01,160.29 572.73,163.64 536.76,131.76"/>
  <polygon points="530.89,246.42 514.74,285.86 572.73,254.55"/>
  <polygon points="526.58,204.03 530.89,246.42 572.73,209.09"/>
  <polygon points="538.48,314.45 572.73,300.00 514.74,285.86"/>
  <polygon points="517.98,345.45 538.48,314.45 480.01,317.63"/>
  <polygon points="442.05,123.86 402.27,129.55 436.36,163.64"/>
  <polygon points="470.45,95.45 442.05,123.86 497.29,123.77"/>
  <polygon points="497.29,123.77 524.12,95.45 470.45,95.45"/>
  <polygon points="511.01,160.29 497.29,123.77 436.36,163.64"/>
  <polygon points="524.12,95.45 527.27,27.27 497.29,64.89"/>
  <polygon points="300.00,72.73 339.77,67.05 300.00,27.27"/>
  <polygon points="412.12,474.24 448.40,499.13 431.53,440.78"/>
  <polygon points="448.40,499.13 412.12,474.24 413.64,526.10"/>
  <polygon points="390.91,572.73 375.96,536.59 345.45,572.73"/>
  <polygon points="375.96,536.59 390.91,572.73 413.64,526.10"/>
  <polygon points="572.73,527.27 572.73,481.82 536.78,513.20"/>
  <polygon points="491.78,491.78 530.81,475.06 480.96,450.39"/>
  <polygon points="572.73,572.73 572.73,527.27 527.27,572.73"/>
  <polygon points="530.81,475.06 491.78,491.78 536.78,513.20"/>
  <polygon points="481.82,572.73 504.55,534.43 459.09,538.66"/>
  <polygon points="459.09,538.66 436.36,572.73 481.82,572.73"/>
  <polygon points="448.40,499.13 459.09,538.66 491.78,491.78"/>
  <polygon points="520.42,433.89 572.73,436.36 529.07,391.09"/>
  <polygon points="529.07,391.09 487.27,378.46 520.42,433.89"/>
  <polygon points="572.73,390.91 529.07,391.09 572.73,436.36"/>
  <polygon points="95.45,368.18 67.05,339.77 27.27,390.91"/>
  <polygon points="72.73,300.00 67.05,339.77 118.18,300.00"/>
  <polygon points="497.29,64.89 481.82,27.27 470.45,95.45"/>
  <polygon points="497.29,64.89 470.45,95.45 524.12,95.45"/>
  <polygon points="572.73,118.18 536.76,131.76 572.73,163.64"/>
  <polygon points="536.76,131.76 572.73,118.18 524.12,95.45"/>
  <polygon points="368.18,95.45 339.77,67.05 341.67,129.55"/>
  <polygon points="345.45,27.27 339.77,67.05 390.91,27.27"/>
  <polygon points="530.81,475.06 536.78,513.20 572.73,481.82"/>
  <polygon points="504.55,534.43 536.78,513.20 491.78,491.78"/>
  <polygon points="572.73,527.27 536.78,513.20 527.27,572.73"/>
</g>
<g fill="#e8eaf6">
  <circle cx="163.64" cy="512.12" r="2.0"/>
  <circle cx="436.36" cy="27.27" r="2.0"/>
  <circle cx="357.90" cy="343.62" r="2.0"/>
  <circle cx="95.45" cy="459.09" r="2.0"/>
  <circle cx="530.89" cy="246.42" r="2.0"/>
  <circle cx="459.09" cy="538.66" r="2.0"/>
  <circle cx="66.10" cy="484.66" r="2.0"/>
  <circle cx="526.58" cy="204.03" r="2.0"/>
  <circle cx="572.73" cy="163.64" r="2.0"/>
  <circle cx="504.55" cy="534.43" r="2.0"/>
  <circle cx="27.27" cy="572.73" r="2.0"/>
  <circle cx="530.81" cy="475.06" r="2.0"/>
  <circle cx="118.18" cy="413.64" r="2.0"/>
  <circle cx="163.64" cy="436.36" r="2.0"/>
  <circle cx="572.73" cy="209.09" r="2.0"/>
  <circle cx="27.27" cy="300.00" r="2.0"/>
  <circle cx="572.73" cy="345.45" r="2.0"/>
  <circle cx="538.48" cy="314.45" r="2.0"/>
  <circle cx="572.73" cy="436.36" r="2.0"/>
  <circle cx="345.45" cy="436.36" r="2.0"/>
  <circle cx="345.45" cy="27.27" r="2.0"/>
  <circle cx="129.76" cy="341.74" r="2.0"/>
  <circle cx="368.18" cy="163.64" r="2.0"/>
  <circle cx="300.00" cy="572.73" r="2.0"/>
  <circle cx="318.47" cy="405.47" r="2.0"/>
  <circle cx="254.55" cy="481.82" r="2.0"/>
  <circle cx="514.74" cy="285.86" r="2.0"/>
  <circle cx="345.45" cy="512.12" r="2.0"/>
  <circle cx="572.73" cy="390.91" r="2.0"/>
  <circle cx="339.77" cy="67.05" r="2.0"/>
  <circle cx="253.48" cy="444.58" r="2.0"/>
  <circle cx="368.18" cy="303.79" r="2.0"/>
  <circle cx="209.09" cy="300.00" r="2.0"/>
  <circle cx="572.73" cy="527.27" r="2.0"/>
  <circle cx="419.32" cy="78.41" r="2.0"/>
  <circle cx="489.39" cy="231.82" r="2.0"/>
  <circle cx="27.27" cy="436.36" r="2.0"/>
  <circle cx="71.10" cy="418.51" r="2.0"/>
  <circle cx="400.38" cy="267.80" r="2.0"/>
  <circle cx="95.45" cy="368.18" r="2.0"/>
  <circle cx="118.18" cy="300.00" r="2.0"/>
  <circle cx="527.27" cy="27.27" r="2.0"/>
  <circle cx="201.85" cy="475.25" r="2.0"/>
  <circle cx="413.64" cy="334.09" r="2.0"/>
  <circle cx="491.78" cy="491.78" r="2.0"/>
  <circle cx="455.11" cy="259.87" r="2.0"/>
  <circle cx="390.91" cy="368.18" r="2.0"/>
  <circle cx="342.30" cy="267.80" r="2.0"/>
  <circle cx="67.05" cy="339.77" r="2.0"/>
  <circle cx="436.36" cy="163.64" r="2.0"/>
  <circle cx="511.01" cy="160.29" r="2.0"/>
  <circle cx="524.12" cy="95.45" r="2.0"/>
  <circle cx="163.64" cy="300.00" r="2.0"/>
  <circle cx="78.41" cy="521.59" r="2.0"/>
  <circle cx="470.45" cy="95.45" r="2.0"/>
  <circle cx="462.88" cy="197.73" r="2.0"/>
  <circle cx="442.05" cy="123.86" r="2.0"/>
  <circle cx="397.73" cy="421.97" r="2.0"/>
  <circle cx="431.53" cy="440.78" r="2.0"/>
  <circle cx="572.73" cy="481.82" r="2.0"/>
  <circle cx="341.67" cy="129.55" r="2.0"/>
  <circle cx="572.73" cy="254.55" r="2.0"/>
  <circle cx="150.50" cy="474.24" r="2.0"/>
  <circle cx="480.01" cy="317.63" r="2.0"/>
  <circle cx="413.64" cy="526.10" r="2.0"/>
  <circle cx="487.27" cy="378.46" r="2.0"/>
  <circle cx="165.26" cy="366.56" r="2.0"/>
  <circle cx="300.00" cy="300.00" r="2.0"/>
  <circle cx="390.91" cy="27.27" r="2.0"/>
  <circle cx="345.45" cy="572.73" r="2.0"/>
  <circle cx="459.09" cy="413.64" r="2.0"/>
  <circle cx="527.27" cy="572.73" r="2.0"/>
  <circle cx="72.73" cy="300.00" r="2.0"/>
  <circle cx="300.00" cy="163.64" r="2.0"/>
  <circle cx="279.34" cy="417.77" r="2.0"/>
  <circle cx="402.27" cy="129.55" r="2.0"/>
  <circle cx="436.36" cy="300.00" r="2.0"/>
  <circle cx="375.96" cy="536.59" r="2.0"/>
  <circle cx="424.80" cy="391.21" r="2.0"/>
  <circle cx="199.18" cy="341.18" r="2.0"/>
  <circle cx="572.73" cy="572.73" r="2.0"/>
  <circle cx="341.67" cy="197.73" r="2.0"/>
  <circle cx="221.29" cy="425.84" r="2.0"/>
  <circle cx="572.73" cy="300.00" r="2.0"/>
  <circle cx="481.82" cy="27.27" r="2.0"/>
  <circle cx="368.03" cy="474.24" r="2.0"/>
  <circle cx="368.18" cy="231.82" r="2.0"/>
  <circle cx="254.55" cy="300.00" r="2.0"/>
  <circle cx="368.18" cy="95.45" r="2.0"/>
  <circle cx="72.73" cy="572.73" r="2.0"/>
  <circle cx="412.12" cy="474.24" r="2.0"/>
  <circle cx="211.55" cy="523.54" r="2.0"/>
  <circle cx="27.27" cy="390.91" r="2.0"/>
  <circle cx="497.29" cy="123.77" r="2.0"/>
  <circle cx="163.64" cy="572.73" r="2.0"/>
  <circle cx="447.73" cy="356.82" r="2.0"/>
  <circle cx="497.29" cy="64.89" r="2.0"/>
  <circle cx="322.54" cy="364.65" r="2.0"/>
  <circle cx="536.78" cy="513.20" r="2.0"/>
  <circle cx="119.05" cy="499.10" r="2.0"/>
  <circle cx="231.82" cy="368.18" r="2.0"/>
  <circle cx="572.73" cy="27.27" r="2.0"/>
  <circle cx="276.35" cy="345.15" r="2.0"/>
  <circle cx="300.00" cy="72.73" r="2.0"/>
  <circle cx="572.73" cy="118.18" r="2.0"/>
  <circle cx="254.19" cy="529.64" r="2.0"/>
  <circle cx="296.75" cy="522.94" r="2.0"/>
  <circle cx="517.98" cy="345.45" r="2.0"/>
  <circle cx="27.27" cy="345.45" r="2.0"/>
  <circle cx="300.00" cy="118.18" r="2.0"/>
  <circle cx="197.94" cy="391.78" r="2.0"/>
  <circle cx="480.96" cy="450.39" r="2.0"/>
  <circle cx="529.07" cy="391.09" r="2.0"/>
  <circle cx="536.76" cy="131.76" r="2.0"/>
  <circle cx="209.09" cy="572.73" r="2.0"/>
  <circle cx="448.40" cy="499.13" r="2.0"/>
  <circle cx="27.27" cy="481.82" r="2.0"/>
  <circle cx="481.82" cy="572.73" r="2.0"/>
  <circle cx="436.36" cy="572.73" r="2.0"/>
  <circle cx="300.00" cy="254.55" r="2.0"/>
  <circle cx="428.79" cy="224.24" r="2.0"/>
  <circle cx="402.27" cy="190.15" r="2.0"/>
  <circle cx="254.55" cy="572.73" r="2.0"/>
  <circle cx="520.42" cy="433.89" r="2.0"/>
  <circle cx="390.91" cy="572.73" r="2.0"/>
  <circle cx="572.73" cy="72.73" r="2.0"/>
  <circle cx="300.00" cy="209.09" r="2.0"/>
  <circle cx="27.27" cy="527.27" r="2.0"/>
  <circle cx="300.00" cy="27.27" r="2.0"/>
  <circle cx="307.58" cy="474.24" r="2.0"/>
  <circle cx="118.18" cy="572.73" r="2.0"/>
</g>
<g fill="#ff8a65">
  <circle cx="176.18" cy="474.75" r="1.2"/>
  <circle cx="413.64" cy="572.73" r="1.2"/>
  <circle cx="354.92" cy="112.50" r="1.2"/>
  <circle cx="140.91" cy="572.73" r="1.2"/>
  <circle cx="321.10" cy="547.84" r="1.2"/>
  <circle cx="497.38" cy="301.74" r="1.2"/>
  <circle cx="112.61" cy="354.96" r="1.2"/>
  <circle cx="46.69" cy="460.51" r="1.2"/>
  <circle cx="182.74" cy="455.81" r="1.2"/>
  <circle cx="430.68" cy="345.45" r="1.2"/>
  <circle cx="266.41" cy="431.18" r="1.2"/>
  <circle cx="504.55" cy="27.27" r="1.2"/>
  <circle cx="385.23" cy="146.59" r="1.2"/>
  <circle cx="328.95" cy="321.81" r="1.2"/>
  <circle cx="430.68" cy="101.14" r="1.2"/>
  <circle cx="300.94" cy="391.21" r="1.2"/>
  <circle cx="572.73" cy="95.45" r="1.2"/>
  <circle cx="320.83" cy="203.41" r="1.2"/>
  <circle cx="83.28" cy="393.34" r="1.2"/>
  <circle cx="430.26" cy="486.69" r="1.2"/>
  <circle cx="334.09" cy="163.64" r="1.2"/>
  <circle cx="509.25" cy="316.04" r="1.2"/>
  <circle cx="453.41" cy="385.23" r="1.2"/>
  <circle cx="182.74" cy="493.69" r="1.2"/>
  <circle cx="453.41" cy="61.36" r="1.2"/>
  <circle cx="106.82" cy="390.91" r="1.2"/>
  <circle cx="140.91" cy="300.00" r="1.2"/>
  <circle cx="493.18" cy="553.58" r="1.2"/>
  <circle cx="393.75" cy="86.93" r="1.2"/>
  <circle cx="436.26" cy="374.02" r="1.2"/>
  <circle cx="187.59" cy="517.83" r="1.2"/>
  <circle cx="419.32" cy="362.50" r="1.2"/>
  <circle cx="572.73" cy="277.27" r="1.2"/>
  <circle cx="49.19" cy="404.71" r="1.2"/>
  <circle cx="371.97" cy="193.94" r="1.2"/>
  <circle cx="337.80" cy="474.24" r="1.2"/>
  <circle cx="181.60" cy="379.17" r="1.2"/>
  <circle cx="106.82" cy="436.36" r="1.2"/>
  <circle cx="398.48" cy="228.03" r="1.2"/>
  <circle cx="75.57" cy="547.16" r="1.2"/>
  <circle cx="233.05" cy="502.68" r="1.2"/>
  <circle cx="517.02" cy="127.77" r="1.2"/>
  <circle cx="384.28" cy="285.80" r="1.2"/>
  <circle cx="500.69" cy="442.14" r="1.2"/>
  <circle cx="498.16" cy="513.11" r="1.2"/>
  <circle cx="181.41" cy="320.59" r="1.2"/>
  <circle cx="49.19" cy="427.44" r="1.2"/>
  <circle cx="322.73" cy="572.73" r="1.2"/>
  <circle cx="555.61" cy="307.23" r="1.2"/>
  <circle cx="356.72" cy="366.42" r="1.2"/>
  <circle cx="277.27" cy="572.73" r="1.2"/>
  <circle cx="402.27" cy="301.89" r="1.2"/>
  <circle cx="215.50" cy="354.68" r="1.2"/>
  <circle cx="354.92" cy="146.59" r="1.2"/>
  <circle cx="486.37" cy="471.08" r="1.2"/>
  <circle cx="523.88" cy="146.03" r="1.2"/>
  <circle cx="572.73" cy="550.00" r="1.2"/>
  <circle cx="524.74" cy="412.49" r="1.2"/>
  <circle cx="545.35" cy="345.45" r="1.2"/>
  <circle cx="50.00" cy="550.00" r="1.2"/>
  <circle cx="489.55" cy="46.08" r="1.2"/>
  <circle cx="511.29" cy="483.42" r="1.2"/>
  <circle cx="92.61" cy="319.89" r="1.2"/>
  <circle cx="456.25" cy="445.59" r="1.2"/>
  <circle cx="554.75" cy="520.23" r="1.2"/>
  <circle cx="548.42" cy="84.09" r="1.2"/>
  <circle cx="27.27" cy="413.64" r="1.2"/>
  <circle cx="445.31" cy="427.21" r="1.2"/>
  <circle cx="141.72" cy="390.10" r="1.2"/>
  <circle cx="141.34" cy="505.61" r="1.2"/>
  <circle cx="231.64" cy="551.19" r="1.2"/>
  <circle cx="464.68" cy="474.76" r="1.2"/>
  <circle cx="390.07" cy="474.24" r="1.2"/>
  <circle cx="134.34" cy="443.94" r="1.2"/>
  <circle cx="198.56" cy="366.48" r="1.2"/>
  <circle cx="300.00" cy="186.36" r="1.2"/>
  <circle cx="532.03" cy="542.96" r="1.2"/>
  <circle cx="441.94" cy="402.42" r="1.2"/>
  <circle cx="572.73" cy="459.09" r="1.2"/>
  <circle cx="320.83" cy="226.14" r="1.2"/>
  <circle cx="541.87" cy="161.97" r="1.2"/>
  <circle cx="231.82" cy="572.73" r="1.2"/>
  <circle cx="83.28" cy="438.80" r="1.2"/>
  <circle cx="354.92" cy="214.77" r="1.2"/>
  <circle cx="473.18" cy="396.05" r="1.2"/>
  <circle cx="518.79" cy="182.16" r="1.2"/>
  <circle cx="47.16" cy="342.61" r="1.2"/>
  <circle cx="405.11" cy="52.84" r="1.2"/>
  <circle cx="80.78" cy="471.88" r="1.2"/>
  <circle cx="320.83" cy="146.59" r="1.2"/>
  <circle cx="243.18" cy="334.09" r="1.2"/>
  <circle cx="508.17" cy="384.77" r="1.2"/>
  <circle cx="319.89" cy="47.16" r="1.2"/>
  <circle cx="528.74" cy="225.23" r="1.2"/>
  <circle cx="439.96" cy="469.96" r="1.2"/>
  <circle cx="419.32" cy="146.59" r="1.2"/>
  <circle cx="445.74" cy="279.93" r="1.2"/>
  <circle cx="356.74" cy="493.18" r="1.2"/>
  <circle cx="300.00" cy="231.82" r="1.2"/>
  <circle cx="69.89" cy="319.89" r="1.2"/>
  <circle cx="355.24" cy="285.80" r="1.2"/>
  <circle cx="530.44" cy="113.61" r="1.2"/>
  <circle cx="466.82" cy="143.71" r="1.2"/>
  <circle cx="498.99" cy="331.54" r="1.2"/>
  <circle cx="254.01" cy="463.20" r="1.2"/>
  <circle cx="299.44" cy="354.90" r="1.2"/>
  <circle cx="439.20" cy="143.75" r="1.2"/>
  <circle cx="543.73" cy="270.20" r="1.2"/>
  <circle cx="382.88" cy="448.11" r="1.2"/>
  <circle cx="473.69" cy="161.97" r="1.2"/>
  <circle cx="321.15" cy="261.17" r="1.2"/>
  <circle cx="411.26" cy="406.59" r="1.2"/>
  <circle cx="421.83" cy="457.51" r="1.2"/>
  <circle cx="514.28" cy="502.49" r="1.2"/>
  <circle cx="463.87" cy="337.22" r="1.2"/>
  <circle cx="302.16" cy="498.59" r="1.2"/>
  <circle cx="95.45" cy="572.73" r="1.2"/>
  <circle cx="444.89" cy="86.93" r="1.2"/>
  <circle cx="413.64" cy="27.27" r="1.2"/>
  <circle cx="404.92" cy="448.11" r="1.2"/>
  <circle cx="147.51" cy="354.15" r="1.2"/>
  <circle cx="467.56" cy="288.75" r="1.2"/>
  <circle cx="340.22" cy="354.14" r="1.2"/>
  <circle cx="394.32" cy="395.08" r="1.2"/>
  <circle cx="95.45" cy="300.00" r="1.2"/>
  <circle cx="390.91" cy="318.94" r="1.2"/>
  <circle cx="549.65" cy="206.56" r="1.2"/>
  <circle cx="186.36" cy="300.00" r="1.2"/>
  <circle cx="385.23" cy="210.98" r="1.2"/>
  <circle cx="334.09" cy="301.89" r="1.2"/>
  <circle cx="300.00" cy="140.91" r="1.2"/>
  <circle cx="520.66" cy="523.82" r="1.2"/>
  <circle cx="275.47" cy="526.29" r="1.2"/>
  <circle cx="365.34" cy="47.16" r="1.2"/>
  <circle cx="504.15" cy="142.03" r="1.2"/>
  <circle cx="494.73" cy="200.88" r="1.2"/>
  <circle cx="554.75" cy="497.51" r="1.2"/>
  <circle cx="281.06" cy="478.03" r="1.2"/>
  <circle cx="484.93" cy="272.86" r="1.2"/>
  <circle cx="228.20" cy="478.53" r="1.2"/>
  <circle cx="449.62" cy="180.68" r="1.2"/>
  <circle cx="432.58" cy="193.94" r="1.2"/>
  <circle cx="298.90" cy="411.62" r="1.2"/>
  <circle cx="164.45" cy="401.46" r="1.2"/>
  <circle cx="525.69" cy="61.36" r="1.2"/>
  <circle cx="107.25" cy="479.10" r="1.2"/>
  <circle cx="483.64" cy="348.04" r="1.2"/>
  <circle cx="321.10" cy="517.53" r="1.2"/>
  <circle cx="140.91" cy="542.42" r="1.2"/>
  <circle cx="504.55" cy="572.73" r="1.2"/>
  <circle cx="186.36" cy="572.73" r="1.2"/>
  <circle cx="300.00" cy="95.45" r="1.2"/>
  <circle cx="526.61" cy="300.15" r="1.2"/>
  <circle cx="502.62" cy="361.95" r="1.2"/>
  <circle cx="523.52" cy="368.27" r="1.2"/>
  <circle cx="374.40" cy="355.90" r="1.2"/>
  <circle cx="554.74" cy="147.70" r="1.2"/>
  <circle cx="533.79" cy="494.13" r="1.2"/>
  <circle cx="476.14" cy="61.36" r="1.2"/>
  <circle cx="353.98" cy="81.25" r="1.2"/>
  <circle cx="407.85" cy="379.70" r="1.2"/>
  <circle cx="469.67" cy="123.82" r="1.2"/>
  <circle cx="427.84" cy="52.84" r="1.2"/>
  <circle cx="27.27" cy="504.55" r="1.2"/>
  <circle cx="548.42" cy="106.82" r="1.2"/>
  <circle cx="275.65" cy="502.38" r="1.2"/>
  <circle cx="311.27" cy="332.33" r="1.2"/>
  <circle cx="442.05" cy="328.41" r="1.2"/>
  <circle cx="209.62" cy="408.81" r="1.2"/>
  <circle cx="354.69" cy="386.83" r="1.2"/>
  <circle cx="503.85" cy="406.17" r="1.2"/>
  <circle cx="322.73" cy="27.27" r="1.2"/>
  <circle cx="293.46" cy="446.01" r="1.2"/>
  <circle cx="436.36" cy="532.38" r="1.2"/>
  <circle cx="384.28" cy="249.81" r="1.2"/>
  <circle cx="572.73" cy="231.82" r="1.2"/>
  <circle cx="277.10" cy="551.19" r="1.2"/>
  <circle cx="368.18" cy="572.73" r="1.2"/>
  <circle cx="320.83" cy="180.68" r="1.2"/>
  <circle cx="46.69" cy="505.97" r="1.2"/>
  <circle cx="572.73" cy="322.73" r="1.2"/>
  <circle cx="551.77" cy="455.71" r="1.2"/>
  <circle cx="368.18" cy="27.27" r="1.2"/>
  <circle cx="419.32" cy="176.89" r="1.2"/>
  <circle cx="472.25" cy="245.84" r="1.2"/>
  <circle cx="146.70" cy="320.87" r="1.2"/>
  <circle cx="326.52" cy="493.18" r="1.2"/>
  <circle cx="441.95" cy="242.06" r="1.2"/>
  <circle cx="528.23" cy="329.95" r="1.2"/>
  <circle cx="551.77" cy="478.44" r="1.2"/>
  <circle cx="210.32" cy="548.13" r="1.2"/>
  <circle cx="550.00" cy="27.27" r="1.2"/>
  <circle cx="470.09" cy="495.45" r="1.2"/>
  <circle cx="321.15" cy="283.90" r="1.2"/>
  <circle cx="204.13" cy="320.59" r="1.2"/>
  <circle cx="402.27" cy="549.41" r="1.2"/>
  <circle cx="214.88" cy="379.98" r="1.2"/>
  <circle cx="341.98" cy="232.77" r="1.2"/>
  <circle cx="572.73" cy="50.00" r="1.2"/>
  <circle cx="425.00" cy="549.41" r="1.2"/>
  <circle cx="459.09" cy="27.27" r="1.2"/>
  <circle cx="467.50" cy="367.64" r="1.2"/>
  <circle cx="402.27" cy="159.85" r="1.2"/>
  <circle cx="47.16" cy="365.34" r="1.2"/>
  <circle cx="383.44" cy="554.66" r="1.2"/>
  <circle cx="476.14" cy="214.77" r="1.2"/>
  <circle cx="140.91" cy="425.00" r="1.2"/>
  <circle cx="27.27" cy="368.18" r="1.2"/>
  <circle cx="254.37" cy="551.19" r="1.2"/>
  <circle cx="326.52" cy="455.30" r="1.2"/>
  <circle cx="52.84" cy="524.43" r="1.2"/>
  <circle cx="525.62" cy="454.47" r="1.2"/>
  <circle cx="470.45" cy="555.69" r="1.2"/>
  <circle cx="354.92" cy="180.68" r="1.2"/>
  <circle cx="425.00" cy="317.05" r="1.2"/>
  <circle cx="363.04" cy="323.71" r="1.2"/>
  <circle cx="410.80" cy="103.98" r="1.2"/>
  <circle cx="459.09" cy="228.03" r="1.2"/>
  <circle cx="510.70" cy="109.61" r="1.2"/>
  <circle cx="512.28" cy="46.08" r="1.2"/>
  <circle cx="550.90" cy="368.27" r="1.2"/>
  <circle cx="368.18" cy="402.27" r="1.2"/>
  <circle cx="164.45" cy="333.28" r="1.2"/>
  <circle cx="459.09" cy="572.73" r="1.2"/>
  <circle cx="50.00" cy="572.73" r="1.2"/>
  <circle cx="483.87" cy="109.61" r="1.2"/>
  <circle cx="550.90" cy="413.73" r="1.2"/>
  <circle cx="554.74" cy="124.97" r="1.2"/>
  <circle cx="360.71" cy="524.35" r="1.2"/>
  <circle cx="431.02" cy="512.61" r="1.2"/>
  <circle cx="385.77" cy="338.86" r="1.2"/>
  <circle cx="280.53" cy="459.41" r="1.2"/>
  <circle cx="206.70" cy="499.39" r="1.2"/>
  <circle cx="300.00" cy="277.27" r="1.2"/>
  <circle cx="265.45" cy="322.57" r="1.2"/>
  <circle cx="277.84" cy="381.46" r="1.2"/>
  <circle cx="550.00" cy="550.00" r="1.2"/>
  <circle cx="227.67" cy="459.92" r="1.2"/>
  <circle cx="502.07" cy="258.84" r="1.2"/>
  <circle cx="483.87" cy="80.17" r="1.2"/>
  <circle cx="356.74" cy="455.30" r="1.2"/>
  <circle cx="192.46" cy="431.10" r="1.2"/>
  <circle cx="458.19" cy="308.81" r="1.2"/>
  <circle cx="414.63" cy="431.37" r="1.2"/>
  <circle cx="27.27" cy="550.00" r="1.2"/>
  <circle cx="489.76" cy="423.76" r="1.2"/>
  <circle cx="47.16" cy="319.89" r="1.2"/>
  <circle cx="254.37" cy="505.73" r="1.2"/>
  <circle cx="81.25" cy="353.98" r="1.2"/>
  <circle cx="414.58" cy="246.02" r="1.2"/>
  <circle cx="453.75" cy="518.90" r="1.2"/>
  <circle cx="61.36" cy="379.55" r="1.2"/>
  <circle cx="550.00" cy="572.73" r="1.2"/>
  <circle cx="298.38" cy="547.84" r="1.2"/>
  <circle cx="94.64" cy="416.07" r="1.2"/>
  <circle cx="481.82" cy="536.55" r="1.2"/>
  <circle cx="331.96" cy="420.92" r="1.2"/>
  <circle cx="379.55" cy="61.36" r="1.2"/>
  <circle cx="385.23" cy="176.89" r="1.2"/>
  <circle cx="355.24" cy="249.81" r="1.2"/>
  <circle cx="187.59" cy="548.13" r="1.2"/>
  <circle cx="456.25" cy="109.66" r="1.2"/>
  <circle cx="254.08" cy="356.66" r="1.2"/>
  <circle cx="237.38" cy="435.21" r="1.2"/>
  <circle cx="550.00" cy="50.00" r="1.2"/>
  <circle cx="445.83" cy="210.98" r="1.2"/>
  <circle cx="572.73" cy="504.55" r="1.2"/>
  <circle cx="250.31" cy="421.80" r="1.2"/>
  <circle cx="428.16" cy="416.00" r="1.2"/>
  <circle cx="288.17" cy="322.57" r="1.2"/>
  <circle cx="551.81" cy="250.48" r="1.2"/>
  <circle cx="394.80" cy="531.34" r="1.2"/>
  <circle cx="182.22" cy="353.87" r="1.2"/>
  <circle cx="320.50" cy="385.06" r="1.2"/>
  <circle cx="371.34" cy="267.80" r="1.2"/>
  <circle cx="50.00" cy="300.00" r="1.2"/>
  <circle cx="418.37" cy="283.90" r="1.2"/>
  <circle cx="345.45" cy="542.42" r="1.2"/>
  <circle cx="98.73" cy="510.35" r="1.2"/>
  <circle cx="385.23" cy="112.50" r="1.2"/>
  <circle cx="475.43" cy="515.22" r="1.2"/>
  <circle cx="543.73" cy="292.93" r="1.2"/>
  <circle cx="122.98" cy="466.67" r="1.2"/>
  <circle cx="123.97" cy="320.87" r="1.2"/>
  <circle cx="226.86" cy="320.59" r="1.2"/>
  <circle cx="232.87" cy="526.59" r="1.2"/>
  <circle cx="550.90" cy="391.00" r="1.2"/>
  <circle cx="412.88" cy="500.17" r="1.2"/>
  <circle cx="92.57" cy="491.88" r="1.2"/>
  <circle cx="510.14" cy="239.12" r="1.2"/>
  <circle cx="72.25" cy="503.12" r="1.2"/>
  <circle cx="555.61" cy="329.95" r="1.2"/>
  <circle cx="505.89" cy="462.73" r="1.2"/>
  <circle cx="340.72" cy="98.30" r="1.2"/>
  <circle cx="231.82" cy="300.00" r="1.2"/>
  <circle cx="319.89" cy="92.61" r="1.2"/>
  <circle cx="157.07" cy="493.18" r="1.2"/>
  <circle cx="572.73" cy="186.36" r="1.2"/>
  <circle cx="486.94" cy="179.01" r="1.2"/>
  <circle cx="549.65" cy="183.83" r="1.2"/>
  <circle cx="415.53" cy="207.20" r="1.2"/>
  <circle cx="98.40" cy="340.76" r="1.2"/>
  <circle cx="319.89" cy="69.89" r="1.2"/>
  <circle cx="497.29" cy="95.45" r="1.2"/>
  <circle cx="300.00" cy="50.00" r="1.2"/>
  <circle cx="46.69" cy="483.24" r="1.2"/>
  <circle cx="371.59" cy="429.17" r="1.2"/>
  <circle cx="211.57" cy="450.54" r="1.2"/>
  <circle cx="130.36" cy="367.37" r="1.2"/>
  <circle cx="507.99" cy="217.92" r="1.2"/>
  <circle cx="572.73" cy="413.64" r="1.2"/>
  <circle cx="510.70" cy="80.17" r="1.2"/>
  <circle cx="68.60" cy="451.58" r="1.2"/>
  <circle cx="313.02" cy="439.86" r="1.2"/>
  <circle cx="27.27" cy="322.73" r="1.2"/>
  <circle cx="371.97" cy="129.55" r="1.2"/>
  <circle cx="342.61" cy="47.16" r="1.2"/>
  <circle cx="157.07" cy="455.30" r="1.2"/>
  <circle cx="180.79" cy="414.07" r="1.2"/>
  <circle cx="522.82" cy="266.14" r="1.2"/>
  <circle cx="422.16" cy="126.70" r="1.2"/>
  <circle cx="118.62" cy="535.91" r="1.2"/>
  <circle cx="27.27" cy="459.09" r="1.2"/>
  <circle cx="320.83" cy="123.86" r="1.2"/>
  <circle cx="551.81" cy="227.76" r="1.2"/>
  <circle cx="255.58" cy="392.98" r="1.2"/>
  <circle cx="470.03" cy="432.01" r="1.2"/>
  <circle cx="226.55" cy="397.01" r="1.2"/>
  <circle cx="427.75" cy="263.84" r="1.2"/>
  <circle cx="98.30" cy="547.16" r="1.2"/>
  <circle cx="360.71" cy="554.66" r="1.2"/>
  <circle cx="572.73" cy="368.18" r="1.2"/>
  <circle cx="390.83" cy="500.17" r="1.2"/>
  <circle cx="163.64" cy="542.42" r="1.2"/>
  <circle cx="277.27" cy="300.00" r="1.2"/>
  <circle cx="402.27" cy="351.14" r="1.2"/>
  <circle cx="546.58" cy="435.13" r="1.2"/>
  <circle cx="515.91" cy="553.58" r="1.2"/>
  <circle cx="447.73" cy="555.69" r="1.2"/>
  <circle cx="572.73" cy="140.91" r="1.2"/>
  <circle cx="134.78" cy="486.67" r="1.2"/>
  <circle cx="371.99" cy="505.42" r="1.2"/>
</g>
  <text x="10" y="20" font-family="monospace" font-size="12" fill="#aaaaaa">212 elements  489 nodes  min angle 29.1 deg  max AR 1.96</text>
</svg>
